<svg width="33" height="33" viewBox="0 0 33 33" fill="none" xmlns="http://www.w3.org/2000/svg">
<rect width="33" height="33" rx="16.5" fill="#EBFBFE"/>
<path fill-rule="evenodd" clip-rule="evenodd" d="M12 15C12 12.5147 14.0147 10.5 16.5 10.5C18.9853 10.5 21 12.5147 21 15C21 17.4853 18.9853 19.5 16.5 19.5C14.0147 19.5 12 17.4853 12 15Z" fill="#0B87AC"/>
<path fill-rule="evenodd" clip-rule="evenodd" d="M8.25127 29.1053C8.32861 24.6156 11.992 21 16.5 21C21.0082 21 24.6716 24.6157 24.7488 29.1056C24.7539 29.4034 24.5824 29.676 24.3117 29.8002C21.9327 30.8918 19.2865 31.5 16.5003 31.5C13.7139 31.5 11.0675 30.8917 8.68835 29.7999C8.41768 29.6757 8.24614 29.4031 8.25127 29.1053Z" fill="#0B87AC"/>
<rect x="25.5" y="25.5" width="7" height="7" rx="3.5" fill="#4FD69C"/>
<rect x="25.5" y="25.5" width="7" height="7" rx="3.5" stroke="#FDFDFD"/>
</svg>
